<?xml version="1.0" encoding="iso-8859-1"?>
<!-- Generator: Adobe Illustrator 18.1.1, SVG Export Plug-In . SVG Version: 6.00 Build 0)  -->
<svg xmlns="http://www.w3.org/2000/svg" xmlns:xlink="http://www.w3.org/1999/xlink" version="1.1" id="Capa_1" x="0px" y="0px" viewBox="0 0 18.269 18.269" style="enable-background:new 0 0 18.269 18.269;" xml:space="preserve" width="512px" height="512px">
<g>
	<path d="M18.033,5.413V5.054h0.236V3.978l-0.555,0.001v-2.29h0.229V1.081H17.49V0.724H0.78v0.357H0.325v0.607h0.229v2.291L0,3.978   v1.075h0.219v0.36h0.348v11.048H0.125v1.084h6.518v-1.084H6.186V9.529h0.12c0.225-1.375,1.407-2.424,2.842-2.424   c1.438,0,2.626,1.049,2.853,2.424h0.083v6.932h-0.45v1.085h6.516v-1.085h-0.446V5.413H18.033z M1.386,4.904H0.107V4.172h1.278   L1.386,4.904L1.386,4.904z M2.907,4.904H1.629V4.172h1.278V4.904z M4.426,4.904H3.148V4.172h1.278V4.904z M5.944,4.904H4.667V4.172   h1.276L5.944,4.904L5.944,4.904z M7.466,4.904H6.189V4.172h1.277V4.904z M8.986,4.904H7.708V4.172h1.277L8.986,4.904L8.986,4.904z    M10.508,4.904h-1.28V4.172h1.28V4.904z M12.027,4.904H10.75V4.172h1.277V4.904z M13.546,4.904h-1.278V4.172h1.278V4.904z    M15.066,4.904H13.79V4.172h1.276V4.904L15.066,4.904z M16.587,4.904h-1.278V4.172h1.278V4.904z M16.829,4.904V4.172h1.278v0.732   H16.829z" fill="#24ced4"/>
</g>
<g>
</g>
<g>
</g>
<g>
</g>
<g>
</g>
<g>
</g>
<g>
</g>
<g>
</g>
<g>
</g>
<g>
</g>
<g>
</g>
<g>
</g>
<g>
</g>
<g>
</g>
<g>
</g>
<g>
</g>
</svg>
